# xmcd
# 
# Track frame offsets:
#     150
#     17585
#     34797
# 
# Disc length: 742
# 
# Revision: 2
# Processed by: cddbd v1.5.2PL0 Copyright (c) Steve Scherf et al.
# Submitted via: fre:ac v1.0.27
# 
DISCID=1802e403
DTITLE=Ambershades - Clap Clap Clap
DYEAR=2003
DGENRE=Neofolk
TTITLE0=Clap Clap Clap
TTITLE1=Hello Hello
TTITLE2=Too Much
EXTD=YEAR: 2003
EXTT0=
EXTT1=
EXTT2=
PLAYORDER=
